<svg xmlns="http://www.w3.org/2000/svg" width="32.97" height="43.023" viewBox="0 0 32.97 43.023"><defs><style>.a{fill:#eb3636;stroke:#eb3636;stroke-width:0.8px;}</style></defs><g transform="translate(0.4 0.4)"><path class="a" d="M20.423,42.223H5.027A5.034,5.034,0,0,1,0,37.2V5.027A5.034,5.034,0,0,1,5.027,0H27.144A5.034,5.034,0,0,1,32.17,5.027v15.4a1.005,1.005,0,1,1-2.011,0V5.027a3.02,3.02,0,0,0-3.016-3.016H5.027A3.02,3.02,0,0,0,2.011,5.027V37.2a3.02,3.02,0,0,0,3.016,3.016h15.4a1.005,1.005,0,1,1,0,2.011Z"/></g></svg>