<svg xmlns="http://www.w3.org/2000/svg" width="14.131" height="14.131" viewBox="0 0 14.131 14.131"><defs><style>.a{fill:#0f72a1;}</style></defs><path class="a" d="M5.451,4.714H1.031A1.032,1.032,0,0,1,0,3.683V1.031A1.032,1.032,0,0,1,1.031,0h4.42A1.032,1.032,0,0,1,6.482,1.031V3.683A1.032,1.032,0,0,1,5.451,4.714ZM1.031.884a.147.147,0,0,0-.147.147V3.683a.147.147,0,0,0,.147.147h4.42A.147.147,0,0,0,5.6,3.683V1.031A.147.147,0,0,0,5.451.884Zm0,0"/><path class="a" d="M5.451,221.582H1.031A1.032,1.032,0,0,1,0,220.551v-6.187a1.032,1.032,0,0,1,1.031-1.031h4.42a1.032,1.032,0,0,1,1.031,1.031v6.187A1.032,1.032,0,0,1,5.451,221.582Zm-4.42-7.366a.147.147,0,0,0-.147.147v6.187a.147.147,0,0,0,.147.147h4.42a.147.147,0,0,0,.147-.147v-6.187a.147.147,0,0,0-.147-.147Zm0,0" transform="translate(0 -207.451)"/><path class="a" d="M282.783,346.046h-4.42a1.032,1.032,0,0,1-1.031-1.031v-2.652a1.032,1.032,0,0,1,1.031-1.031h4.42a1.032,1.032,0,0,1,1.031,1.031v2.652A1.032,1.032,0,0,1,282.783,346.046Zm-4.42-3.83a.147.147,0,0,0-.147.147v2.652a.147.147,0,0,0,.147.147h4.42a.147.147,0,0,0,.147-.147v-2.652a.147.147,0,0,0-.147-.147Zm0,0" transform="translate(-269.683 -331.915)"/><path class="a" d="M282.783,8.25h-4.42a1.032,1.032,0,0,1-1.031-1.031V1.031A1.032,1.032,0,0,1,278.363,0h4.42a1.032,1.032,0,0,1,1.031,1.031V7.219A1.032,1.032,0,0,1,282.783,8.25ZM278.363.884a.147.147,0,0,0-.147.147V7.219a.147.147,0,0,0,.147.147h4.42a.147.147,0,0,0,.147-.147V1.031a.147.147,0,0,0-.147-.147Zm0,0" transform="translate(-269.683)"/></svg>