<svg xmlns="http://www.w3.org/2000/svg" width="15.131" height="10.45" viewBox="0 0 15.131 10.45"><defs><style>.a{fill:#111;}</style></defs><g transform="translate(0 -79.19)"><g transform="translate(0 79.19)"><g transform="translate(0 0)"><path class="a" d="M13.047,79.19H2.084A2.087,2.087,0,0,0,0,81.274v6.282A2.087,2.087,0,0,0,2.084,89.64H13.047a2.087,2.087,0,0,0,2.084-2.084V81.274A2.086,2.086,0,0,0,13.047,79.19ZM.9,81.274a1.181,1.181,0,0,1,1.18-1.18H13.047a1.181,1.181,0,0,1,1.18,1.18v.755H.9Zm13.323,6.282a1.181,1.181,0,0,1-1.18,1.18H2.084A1.181,1.181,0,0,1,.9,87.556V82.933H14.227Z" transform="translate(0 -79.19)"/></g></g><g transform="translate(4.28 84.196)"><g transform="translate(0 0)"><path class="a" d="M149.971,248.581a1.441,1.441,0,0,0-1.365.986h-3.314a.452.452,0,0,0-.452.452v.918a.452.452,0,0,0,.9,0v-.465h.419v.465a.452.452,0,0,0,.9,0v-.465h1.539a1.438,1.438,0,1,0,1.365-1.891Zm0,1.973a.534.534,0,1,1,.534-.534A.535.535,0,0,1,149.971,250.554Z" transform="translate(-144.839 -248.581)"/></g></g></g></svg>