<svg xmlns="http://www.w3.org/2000/svg" width="15.131" height="11.832" viewBox="0 0 15.131 11.832"><defs><style>.a{fill:#111;}</style></defs><g transform="translate(0 -55.784)"><g transform="translate(0 58.613)"><path class="a" d="M14.687,159.608h-.894v-5.915a.444.444,0,0,0-.444-.444H10.9a.444.444,0,0,0-.444.444v5.915H9.236v-7.672a.444.444,0,0,0-.444-.444H6.339a.444.444,0,0,0-.444.444v7.672H4.68v-6.384a.444.444,0,0,0-.444-.444H1.783a.444.444,0,0,0-.444.444v6.384H.444a.444.444,0,1,0,0,.887H14.687a.444.444,0,1,0,0-.887Zm-12.46,0v-5.94H3.791v5.94Zm4.556,0V152.38H8.348v7.228Zm4.556,0v-5.471H12.9v5.471Z" transform="translate(0 -151.493)"/></g><path class="a" d="M22.573,57.471A.444.444,0,0,0,22.232,57L20.8,56.652a.443.443,0,1,0-.21.862l.405.1-1.149.709-4.356-2.48a.443.443,0,0,0-.408-.016l-4.33,2.033-2.07-1.292a.444.444,0,1,0-.47.752l2.275,1.42a.443.443,0,0,0,.423.025l4.341-2.037,4.385,2.5a.458.458,0,0,0,.452-.008l1.393-.859-.093.434a.444.444,0,0,0,.867.185l.307-1.44a.511.511,0,0,0,.01-.064Z" transform="translate(-7.767 0)"/></g></svg>