<svg xmlns="http://www.w3.org/2000/svg" width="169.635" height="172.3" viewBox="0 0 169.635 172.3"><defs><style>.a{fill:#0f72a1;}</style></defs><path class="a" d="M168.066,73.813a12.341,12.341,0,0,0-7.643-5.261,12.412,12.412,0,0,0-8.278-17.892,12.442,12.442,0,0,0-.643-12.643,12.331,12.331,0,0,0-7.643-5.261A12.425,12.425,0,0,0,126,16.619l-12.37,8.192a77.3,77.3,0,0,0-20.886-7.068A57.431,57.431,0,0,0,84.773,8.1l-5.118-4.96a11.2,11.2,0,0,0-17.13,14.222q.2.306.4.614a77.939,77.939,0,1,0,88.837,102.861,2.679,2.679,0,1,0-5.039-1.819,72.676,72.676,0,0,1-91.2,44.232l21.8-14.435,0,0s0,0,0,0l18.116-12h0A7.308,7.308,0,0,0,97.5,126.687l-.239-.363,3.519-2.331a11.934,11.934,0,0,1,8.5-1.838,17.274,17.274,0,0,0,12.311-2.662l29.188-19.329a72.733,72.733,0,0,1-.987,7.524,2.678,2.678,0,0,0,2.145,3.123,2.614,2.614,0,0,0,.492.046,2.68,2.68,0,0,0,2.63-2.191,78.35,78.35,0,0,0,1.28-12.185l8.225-5.447a12.427,12.427,0,0,0,3.5-17.222ZM108.427,28.255l-8.186,5.421L98.63,29.334a57.338,57.338,0,0,0-2.3-5.325A71.915,71.915,0,0,1,108.427,28.255ZM23.59,46.828A72.585,72.585,0,0,1,65.485,22.942a33.1,33.1,0,0,1,1.669,20.046L60.622,71.207a7.293,7.293,0,0,0-9.35-1.09L32.77,82.369h0a0,0,0,0,0,0,0L6.08,100.043c-.146-1.882-.222-3.779-.222-5.675A72.557,72.557,0,0,1,23.59,46.828Zm69.725,84.28a1.94,1.94,0,0,1-.836,1.238h0L76.569,142.882,47.038,98.841a2.679,2.679,0,0,0-4.45,2.984L72.1,145.842,49.387,160.884A72.8,72.8,0,0,1,6.781,105.9L33.5,88.268l3.075,4.588a2.679,2.679,0,0,0,4.451-2.984L37.97,85.317,54.231,74.584a1.949,1.949,0,0,1,2.7.551l36.1,54.512A1.932,1.932,0,0,1,93.315,131.108Zm71.317-49.026a7.02,7.02,0,0,1-3.025,4.487L152.2,92.8l-.009.005-33.562,22.226a11.927,11.927,0,0,1-8.5,1.838,17.283,17.283,0,0,0-12.311,2.662L94.3,121.858,64.733,77.212,72.376,44.2a38.493,38.493,0,0,0-2.818-25.268,2.627,2.627,0,0,0-.113-.238A37.9,37.9,0,0,0,66.993,14.4a5.84,5.84,0,0,1,8.934-7.417l5.118,4.961A52.345,52.345,0,0,1,93.606,31.2l2.787,7.507c.005.014.011.026.016.039l.021.053c.02.046.038.088.058.124a2.644,2.644,0,0,0,.184.331,2.677,2.677,0,0,0,3.712.755l28.574-18.922a7.068,7.068,0,0,1,7.806,11.786l-2.481,1.643h0l-5.533,3.665a.2.2,0,0,1-.021.014c-.032.022-.062.043-.087.064a2.678,2.678,0,0,0,3.067,4.388l5.537-3.668a7.069,7.069,0,0,1,7.8,11.79l-8.016,5.309a2.679,2.679,0,1,0,2.958,4.467l1.241-.822,4.293-2.843a7.069,7.069,0,0,1,7.806,11.788l-4,2.651-.063.042-3.949,2.615a2.679,2.679,0,1,0,2.958,4.468l1.241-.822a0,0,0,0,1,0,0l4.293-2.842a7.066,7.066,0,0,1,10.828,7.3Zm0,0" transform="translate(-0.5 0)"/></svg>