<svg xmlns="http://www.w3.org/2000/svg" width="36" height="36" viewBox="0 0 36 36"><defs><style>.a{fill:#cfe5f1;}.b{fill:#0f72a1;stroke:#127fba;stroke-width:0.2px;}</style></defs><g transform="translate(-1001 -12)"><circle class="a" cx="18" cy="18" r="18" transform="translate(1001 12)"/><g transform="translate(992.181 9.082)"><path class="b" d="M45.221,78.711a.7.7,0,0,0-.691.555,1.363,1.363,0,0,1-.272.593,1.028,1.028,0,0,1-.876.321,1.045,1.045,0,0,1-.876-.321,1.363,1.363,0,0,1-.272-.593.7.7,0,0,0-.691-.555h0a.709.709,0,0,0-.691.865,2.594,2.594,0,0,0,5.058,0,.712.712,0,0,0-.691-.865Z" transform="translate(-16.471 -50.381)"/><path class="b" d="M34.829,25.709c-.781-1.013-2.318-1.607-2.318-6.145,0-4.657-2.09-6.529-4.037-6.979-.183-.045-.314-.1-.314-.295v-.145a1.234,1.234,0,0,0-1.217-1.228h-.03a1.234,1.234,0,0,0-1.217,1.228v.145c0,.185-.132.25-.314.295-1.953.454-4.037,2.321-4.037,6.979,0,4.538-1.537,5.127-2.318,6.145a.99.99,0,0,0,.806,1.587H34.038A.99.99,0,0,0,34.829,25.709ZM32.851,26H21.023a.219.219,0,0,1-.167-.364,6.036,6.036,0,0,0,1.065-1.667,11.152,11.152,0,0,0,.725-4.4,7.561,7.561,0,0,1,1.06-4.333,3.256,3.256,0,0,1,1.963-1.378,1.784,1.784,0,0,0,.943-.524.405.405,0,0,1,.6-.01,1.845,1.845,0,0,0,.954.534,3.256,3.256,0,0,1,1.963,1.378,7.561,7.561,0,0,1,1.06,4.333,11.152,11.152,0,0,0,.725,4.4,6.106,6.106,0,0,0,1.091,1.692A.206.206,0,0,1,32.851,26Z"/></g></g></svg>