<svg xmlns="http://www.w3.org/2000/svg" width="40.39" height="44.493" viewBox="0 0 40.39 44.493"><defs><style>.a,.b,.c{fill:#eb3636;}.a,.b{stroke:#eb3636;}.a{stroke-width:0.8px;}.b{stroke-width:0.5px;}</style></defs><g transform="translate(-916.6 -274.601)"><g transform="translate(917 275.001)"><path class="a" d="M20.423,42.223H5.027A5.034,5.034,0,0,1,0,37.2V5.027A5.034,5.034,0,0,1,5.027,0H27.144A5.034,5.034,0,0,1,32.17,5.027v15.4a1.005,1.005,0,1,1-2.011,0V5.027a3.02,3.02,0,0,0-3.016-3.016H5.027A3.02,3.02,0,0,0,2.011,5.027V37.2a3.02,3.02,0,0,0,3.016,3.016h15.4a1.005,1.005,0,1,1,0,2.011Z"/></g><g transform="translate(927.684 300.454)"><g transform="translate(0 0)"><path class="b" d="M155.192,248.581a2.907,2.907,0,0,0-2.754,1.99h-6.686a.912.912,0,0,0-.912.912v1.851a.912.912,0,0,0,1.824,0V252.4h.845v.939a.912.912,0,0,0,1.824,0V252.4h3.1a2.9,2.9,0,1,0,2.754-3.814Zm0,3.98a1.078,1.078,0,1,1,1.078-1.078A1.079,1.079,0,0,1,155.192,252.561Z" transform="translate(-144.839 -248.581)"/></g></g><path class="c" d="M0,8.335A8.146,8.146,0,0,1,1.134,4.152a8.3,8.3,0,0,1,3.05-3.034A8.075,8.075,0,0,1,8.351,0a8.248,8.248,0,0,1,4.2,1.1A8.052,8.052,0,0,1,15.568,4.12a8.291,8.291,0,0,1,1.1,4.2,1.363,1.363,0,0,1-.383.974,1.22,1.22,0,0,1-.942.4,1.363,1.363,0,0,1-1.357-1.373,5.473,5.473,0,0,0-1.661-4.008A5.473,5.473,0,0,0,8.319,2.651,5.332,5.332,0,0,0,4.375,4.311,5.507,5.507,0,0,0,2.746,8.319a5.9,5.9,0,0,0,1.261,3.688,3.97,3.97,0,0,0,2.938,1.756l-.607-.591a1.362,1.362,0,0,1-.383-.926,1.408,1.408,0,0,1,.383-.958,1.321,1.321,0,0,1,1.932,0L11.209,14.2a1.167,1.167,0,0,1,.383.99,1.063,1.063,0,0,1-.383.91L8.3,19.081a1.367,1.367,0,0,1-1.916-.016,1.3,1.3,0,0,1-.4-.958,1.337,1.337,0,0,1,.383-.974l.607-.575A8.214,8.214,0,0,1,2,13.684,8.034,8.034,0,0,1,0,8.335Z" transform="translate(956.99 319.094) rotate(180)"/><path class="a" d="M159.067,154.378a3.439,3.439,0,1,0-3.442-3.435A3.439,3.439,0,0,0,159.067,154.378Zm0-5.546a2.111,2.111,0,1,1-2.111,2.111A2.111,2.111,0,0,1,159.067,148.832Zm0,0" transform="translate(774.288 134.4)"/><path class="a" d="M121.666,306.639h9.241a.667.667,0,0,0,.666-.666,5.522,5.522,0,0,0-1.544-3.908,5.256,5.256,0,0,0-7.483,0A5.522,5.522,0,0,0,121,305.973.667.667,0,0,0,121.666,306.639ZM123.5,303a3.922,3.922,0,0,1,5.579,0,4.093,4.093,0,0,1,1.119,2.31h-7.816A4.072,4.072,0,0,1,123.5,303Zm0,0" transform="translate(807.069 -10.45)"/></g></svg>