<svg xmlns="http://www.w3.org/2000/svg" width="45.49" height="34.193" viewBox="0 0 45.49 34.193"><defs><style>.a{fill:#0f72a1;stroke:#0f72a1;stroke-width:0.5px;}</style></defs><g transform="translate(-13.228 -43.683)"><path class="a" d="M209.423,188.847a5.123,5.123,0,1,0-5.123-5.123A5.123,5.123,0,0,0,209.423,188.847Zm0-8.255a3.141,3.141,0,1,1-3.141,3.141A3.141,3.141,0,0,1,209.423,180.592Z" transform="translate(-182.219 -129.603)"/><path class="a" d="M184.468,301.1a7.689,7.689,0,0,0-5.569,2.329,8.219,8.219,0,0,0-2.3,5.817.994.994,0,0,0,.991.991h13.755a.994.994,0,0,0,.991-.991,8.22,8.22,0,0,0-2.3-5.817A7.689,7.689,0,0,0,184.468,301.1Zm-5.817,7.155a6.061,6.061,0,0,1,1.665-3.439,5.838,5.838,0,0,1,8.3,0,6.091,6.091,0,0,1,1.665,3.439Z" transform="translate(-157.264 -239.962)"/><path class="a" d="M28.738,0H4.955A4.957,4.957,0,0,0,0,4.955v35.08A4.957,4.957,0,0,0,4.955,44.99H28.738a4.957,4.957,0,0,0,4.955-4.955V4.955A4.957,4.957,0,0,0,28.738,0Zm2.973,40.035a2.982,2.982,0,0,1-2.973,2.973H4.955a2.982,2.982,0,0,1-2.973-2.973V4.955A2.982,2.982,0,0,1,4.955,1.982H28.738a2.982,2.982,0,0,1,2.973,2.973Z" transform="translate(58.468 43.933) rotate(90)"/><path class="a" d="M205.573,90.082h10.181a1.022,1.022,0,1,0,0-1.982H205.573a1.022,1.022,0,1,0,0,1.982Z" transform="translate(-165.406 -33.457)"/><path class="a" d="M205.573,90.082h10.181a1.022,1.022,0,1,0,0-1.982H205.573a1.022,1.022,0,1,0,0,1.982Z" transform="translate(-165.406 -27.611)"/><path class="a" d="M205.573,90.082h10.181a1.022,1.022,0,1,0,0-1.982H205.573a1.022,1.022,0,1,0,0,1.982Z" transform="translate(-165.406 -21.766)"/></g></svg>