<svg xmlns="http://www.w3.org/2000/svg" width="17.691" height="17" viewBox="0 0 17.691 17"><defs><style>.a{fill:#111;}</style></defs><g transform="translate(-0.807 -3.4)"><path class="a" d="M10.347,7a1.8,1.8,0,1,0-1.8-1.8A1.8,1.8,0,0,0,10.347,7Zm0-2.692a.89.89,0,1,1-.89.89A.89.89,0,0,1,10.347,4.312Zm-1.5,3h.429a.456.456,0,0,1,.323.133l.748.752.75-.75a.456.456,0,0,1,.323-.133h.429a1.642,1.642,0,0,1,1.642,1.642v1.164a.456.456,0,1,1-.912,0V8.954a.73.73,0,0,0-.73-.73h-.237l-.81.81a.655.655,0,0,1-.912,0l-.8-.812H8.847a.73.73,0,0,0-.73.73v1.164a.456.456,0,0,1-.912,0V8.954A1.642,1.642,0,0,1,8.847,7.311Zm1.5,9.41A1.824,1.824,0,1,0,8.523,14.9a1.824,1.824,0,0,0,1.824,1.824Zm0-2.736a.378.378,0,1,1,0-.005Zm5.534,4.925a.456.456,0,0,1-.888.208l-1.676-7.159H7.383L5.7,19.118a.456.456,0,0,1-.888-.208L6.5,11.718a.877.877,0,0,1,.857-.679h5.983a.876.876,0,0,1,.855.679ZM8.917,17.086h2.789a2.041,2.041,0,0,1,2.05,2.03v.828a.456.456,0,1,1-.912,0v-.828a1.125,1.125,0,0,0-1.124-1.124H8.964a1.127,1.127,0,0,0-1.111,1.124v.828a.456.456,0,1,1-.912,0v-.828A2.043,2.043,0,0,1,8.92,17.082ZM15.24,10.32a1.735,1.735,0,1,0,1.735-1.735A1.735,1.735,0,0,0,15.24,10.32Zm2.554,0a.816.816,0,1,1-.239-.583.823.823,0,0,1,.239.583Zm.7,2.844a2.227,2.227,0,0,1,.7,1.614V15.9a.8.8,0,0,1-.8.8H16.313a.456.456,0,1,1,0-.912h1.968V14.778a1.306,1.306,0,0,0-1.388-1.3,1.259,1.259,0,0,0-.863.432.456.456,0,1,1-.679-.609,2.167,2.167,0,0,1,1.487-.73,2.2,2.2,0,0,1,1.656.6ZM3.718,12.053a1.735,1.735,0,1,0-1.735-1.735,1.735,1.735,0,0,0,1.735,1.735Zm0-2.554a.82.82,0,1,1-.582.24.823.823,0,0,1,.582-.24ZM1.5,15.9V14.778a2.227,2.227,0,0,1,.7-1.614,2.2,2.2,0,0,1,1.656-.6,2.167,2.167,0,0,1,1.487.73.457.457,0,0,1-.679.611,1.259,1.259,0,0,0-.863-.425,1.306,1.306,0,0,0-1.388,1.3v1.011H4.38a.456.456,0,1,1,0,.912H2.3a.8.8,0,0,1-.8-.8Z" transform="translate(-0.693 0)"/></g></svg>